<svg width="1171" height="274" viewBox="0 0 1171 274" fill="none" xmlns="http://www.w3.org/2000/svg">
<mask id="mask0_4_98" style="mask-type:alpha" maskUnits="userSpaceOnUse" x="0" y="0" width="1171" height="274">
<rect width="1171" height="274" rx="15" fill="url(#paint0_linear_4_98)"/>
</mask>
<g mask="url(#mask0_4_98)">
<g opacity="0.8">
<path d="M191.5 -165C343.605 -165 486.62 -105.77 594.181 1.75046C667.3 74.8518 719.085 165.943 743.916 265.155C749.509 287.509 735.923 310.137 713.579 315.729C691.234 321.321 668.586 307.739 662.992 285.399C641.819 200.839 597.635 123.143 535.197 60.7343C443.39 -31.0506 321.333 -81.5959 191.5 -81.5959C168.461 -81.5959 149.788 -100.265 149.788 -123.298C149.788 -146.331 168.461 -165 191.5 -165V-165Z" fill="url(#paint1_linear_4_98)" fill-opacity="0.3"/>
<path d="M439.893 57.642C448.781 57.642 457.699 60.6042 465.099 66.6587C476.329 75.8631 487.285 85.7613 497.604 96.1073C583.558 182.04 630.906 296.309 630.906 417.846L630.906 674.488C630.906 696.48 613.071 714.297 591.088 714.297C569.104 714.297 551.269 696.48 551.269 674.488L551.269 417.831C551.269 317.564 512.202 223.28 441.295 152.389C432.811 143.907 423.835 135.786 414.628 128.244C397.617 114.314 395.117 89.2292 409.064 72.2362C416.941 62.6272 428.359 57.6565 439.878 57.6565L439.907 57.6565L439.893 57.642Z" fill="url(#paint2_linear_4_98)" fill-opacity="0.3"/>
<path d="M112.859 -37.163C113.726 -37.163 196.847 -36.2093 228.254 -29.6202C271.642 -25.9355 314.005 -15.7773 354.185 0.594259C374.549 8.88842 384.319 32.1237 376.038 52.4834C367.742 72.8431 344.515 82.6111 324.136 74.3314C290.634 60.6764 255.267 52.3244 219.018 49.5067L214.393 49.1455L210.707 47.9751C197.367 45.1285 132.805 42.4697 112.874 42.4697C90.8904 42.4697 73.0551 24.6532 73.0551 2.66063C73.0551 -19.3319 90.8759 -37.1485 112.874 -37.1485L112.859 -37.163Z" fill="url(#paint3_linear_4_98)" fill-opacity="0.35"/>
<path d="M-125.181 84.9999L64.3292 84.9999C86.3125 84.9999 104.148 102.817 104.148 124.809C104.148 146.802 86.327 164.618 64.3292 164.618L-125.181 164.618C-147.165 164.618 -165 146.802 -165 124.809C-165 102.817 -147.179 84.9999 -125.181 84.9999Z" fill="url(#paint4_linear_4_98)" fill-opacity="0.2"/>
<path d="M31.1296 90.6743L160.081 90.6743C195.665 90.6743 230.7 96.1074 264.202 106.815C315.323 123.157 362.643 152.071 401.031 190.464C465.391 254.809 500.83 340.352 500.83 431.356C500.83 452.294 483.848 469.272 462.905 469.272C441.962 469.272 424.98 452.294 424.98 431.356C424.98 360.61 397.432 294.112 347.38 244.087C317.072 213.786 281.315 191.909 241.091 179.049C215.061 170.74 187.802 166.521 160.067 166.521L31.1152 166.521C10.1725 166.521 -6.81002 149.543 -6.81002 128.605C-6.81002 107.667 10.1725 90.6887 31.1152 90.6887L31.1296 90.6743Z" fill="url(#paint5_linear_4_98)" fill-opacity="0.5"/>
</g>
</g>
<defs>
<linearGradient id="paint0_linear_4_98" x1="274.466" y1="56.5397" x2="761.58" y2="-158.223" gradientUnits="userSpaceOnUse">
<stop offset="0.3125" stop-color="#4277F0"/>
<stop offset="0.946794" stop-color="#13C5A5"/>
</linearGradient>
<linearGradient id="paint1_linear_4_98" x1="584.468" y1="218.526" x2="290.13" y2="-164.201" gradientUnits="userSpaceOnUse">
<stop stop-color="#56ABF9"/>
<stop offset="1" stop-color="#9AB9FE"/>
</linearGradient>
<linearGradient id="paint2_linear_4_98" x1="291.306" y1="9.04157" x2="734.431" y2="656.273" gradientUnits="userSpaceOnUse">
<stop stop-color="#239CF4"/>
<stop offset="0.619792" stop-color="#4378F1"/>
</linearGradient>
<linearGradient id="paint3_linear_4_98" x1="332.938" y1="41.8339" x2="80.2299" y2="-15.8468" gradientUnits="userSpaceOnUse">
<stop stop-color="#598AFA"/>
<stop offset="1" stop-color="#4378F1"/>
</linearGradient>
<linearGradient id="paint4_linear_4_98" x1="53.4893" y1="124.823" x2="-164.884" y2="124.823" gradientUnits="userSpaceOnUse">
<stop stop-color="#359FF3"/>
<stop offset="1" stop-color="#4378F1"/>
</linearGradient>
<linearGradient id="paint5_linear_4_98" x1="3.35061" y1="157.273" x2="452.329" y2="321.694" gradientUnits="userSpaceOnUse">
<stop offset="0.239583" stop-color="#4E81F5" stop-opacity="0"/>
<stop offset="1" stop-color="#2D94F4"/>
</linearGradient>
</defs>
</svg>
