<svg width="1430" height="2318" viewBox="0 0 1430 2318" fill="none" xmlns="http://www.w3.org/2000/svg">
<mask id="mask0_4_119" style="mask-type:alpha" maskUnits="userSpaceOnUse" x="0" y="0" width="1439" height="2318">
<rect width="1439" height="2318" fill="url(#paint0_linear_4_119)"/>
</mask>
<g mask="url(#mask0_4_119)">
<g opacity="0.5">
<path d="M1474.68 1427.99C1189.88 1427.99 922.105 1317.09 720.713 1115.77C583.809 978.9 486.847 808.345 440.355 622.584C429.882 580.73 455.32 538.362 497.158 527.892C538.995 517.421 581.4 542.853 591.873 584.68C631.518 743.007 714.245 888.482 831.151 1005.33C1003.05 1177.19 1231.58 1271.83 1474.68 1271.83C1517.81 1271.83 1552.78 1306.78 1552.78 1349.91C1552.78 1393.03 1517.81 1427.99 1474.68 1427.99Z" fill="url(#paint1_linear_4_119)"/>
<path d="M1009.6 1004.02C992.954 1004.02 976.257 998.474 962.402 987.137C941.375 969.903 920.862 951.371 901.54 931.999C740.605 771.102 651.951 557.152 651.951 329.592V-328.463C651.951 -369.641 685.345 -403 726.506 -403C767.667 -403 801.061 -369.641 801.061 -328.463V329.619C801.061 517.354 874.208 693.887 1006.97 826.62C1022.86 842.501 1039.66 857.706 1056.9 871.829C1088.75 897.91 1093.43 944.877 1067.32 976.694C1052.57 994.686 1031.19 1003.99 1009.62 1003.99H1009.57L1009.6 1004.02Z" fill="url(#paint2_linear_4_119)" fill-opacity="0.35"/>
<path d="M1621.92 1181.53C1620.3 1181.53 1464.67 1179.74 1405.86 1167.41C1324.62 1160.51 1245.3 1141.49 1170.07 1110.83C1131.94 1095.3 1113.65 1051.8 1129.16 1013.68C1144.69 975.557 1188.18 957.268 1226.33 972.771C1289.06 998.338 1355.28 1013.98 1423.15 1019.25L1431.81 1019.93L1438.71 1022.12C1463.69 1027.45 1584.58 1032.43 1621.89 1032.43C1663.05 1032.43 1696.45 1065.79 1696.45 1106.96C1696.45 1148.14 1663.08 1181.5 1621.89 1181.5L1621.92 1181.53Z" fill="url(#paint3_linear_4_119)"/>
<path d="M1774.95 942.171H1533.51C1466.88 942.171 1401.28 931.999 1338.55 911.951C1242.84 881.352 1154.24 827.214 1082.36 755.329C961.857 634.853 895.502 474.686 895.502 304.293C895.502 265.091 927.3 233.301 966.512 233.301C1005.72 233.301 1037.52 265.091 1037.52 304.293C1037.52 436.755 1089.1 561.263 1182.81 654.928C1239.56 711.662 1306.51 752.623 1381.83 776.703C1430.56 792.259 1481.6 800.159 1533.53 800.159H1774.98C1814.19 800.159 1845.99 831.949 1845.99 871.152C1845.99 910.355 1814.19 942.144 1774.98 942.144L1774.95 942.171Z" fill="url(#paint4_linear_4_119)" fill-opacity="0.8"/>
<path d="M966.486 336.172C927.274 336.172 895.477 304.382 895.477 265.179V-82.4635C895.477 -121.666 927.274 -153.456 966.486 -153.456C1005.7 -153.456 1037.5 -121.666 1037.5 -82.4635V265.179C1037.5 304.382 1005.7 336.172 966.486 336.172Z" fill="url(#paint5_linear_4_119)" fill-opacity="0.5"/>
</g>
<g opacity="0.8">
<path d="M-585 2150.22C-585 1865.43 -474.101 1597.65 -272.784 1396.26C-135.912 1259.36 34.6431 1162.4 220.403 1115.9C262.258 1105.43 304.626 1130.87 315.096 1172.71C325.567 1214.54 300.135 1256.95 258.308 1267.42C99.9812 1307.07 -45.4941 1389.79 -162.345 1506.7C-334.199 1678.6 -428.838 1907.13 -428.838 2150.22C-428.838 2193.36 -463.793 2228.32 -506.919 2228.32C-550.045 2228.32 -585 2193.36 -585 2150.22Z" fill="url(#paint6_linear_4_119)"/>
<path d="M-168.135 1685.14C-168.135 1668.5 -162.589 1651.8 -151.252 1637.95C-134.018 1616.92 -115.486 1596.41 -96.1142 1577.09C64.7825 1416.15 278.734 1327.5 506.295 1327.5L986.82 1327.5C1028 1327.5 1061.36 1360.89 1061.36 1402.05C1061.36 1443.21 1028 1476.61 986.82 1476.61L506.268 1476.61C318.532 1476.61 141.998 1549.75 9.26549 1682.52C-6.61586 1698.4 -21.8208 1715.21 -35.9436 1732.45C-62.0247 1764.3 -108.992 1768.98 -140.809 1742.87C-158.801 1728.12 -168.108 1706.74 -168.108 1685.17L-168.108 1685.12L-168.135 1685.14Z" fill="url(#paint7_linear_4_119)" fill-opacity="0.65"/>
<path d="M-106.287 2450.5L-106.287 2209.05C-106.287 2142.43 -96.1143 2076.83 -76.0664 2014.1C-45.4671 1918.38 8.67014 1829.79 80.5555 1757.91C201.032 1637.4 361.198 1571.05 531.591 1571.05C570.794 1571.05 602.584 1602.85 602.584 1642.06C602.584 1681.27 570.794 1713.07 531.591 1713.07C399.129 1713.07 274.622 1764.65 180.957 1858.36C124.222 1915.11 83.261 1982.06 59.182 2057.37C43.6253 2106.11 35.7253 2157.15 35.7253 2209.08L35.7253 2450.52C35.7253 2489.74 3.93561 2521.53 -35.2672 2521.53C-74.4701 2521.53 -106.26 2489.74 -106.26 2450.52L-106.287 2450.5Z" fill="url(#paint8_linear_4_119)"/>
<path d="M657 1642.03C657 1602.82 688.79 1571.02 727.993 1571.02L1007.65 1571.02C1046.85 1571.02 1078.64 1602.82 1078.64 1642.03C1078.64 1681.24 1046.85 1713.04 1007.65 1713.04L727.993 1713.04C688.79 1713.04 657 1681.24 657 1642.03Z" fill="url(#paint9_linear_4_119)" fill-opacity="0.3"/>
</g>
</g>
<defs>
<linearGradient id="paint0_linear_4_119" x1="719.5" y1="0" x2="719.5" y2="2318" gradientUnits="userSpaceOnUse">
<stop stop-color="#091F40"/>
<stop offset="1" stop-color="#00B5AC"/>
</linearGradient>
<linearGradient id="paint1_linear_4_119" x1="472" y1="748.537" x2="1529.85" y2="1384.78" gradientUnits="userSpaceOnUse">
<stop offset="0.17565" stop-color="#4F83F9" stop-opacity="0"/>
<stop offset="1" stop-color="#4F83F9"/>
</linearGradient>
<linearGradient id="paint2_linear_4_119" x1="752" y1="-336.463" x2="974" y2="1019.54" gradientUnits="userSpaceOnUse">
<stop offset="0.223958" stop-color="#4F83F9" stop-opacity="0"/>
<stop offset="0.880208" stop-color="#4F82F9"/>
</linearGradient>
<linearGradient id="paint3_linear_4_119" x1="1142" y1="1026.54" x2="1683.01" y2="1141.62" gradientUnits="userSpaceOnUse">
<stop stop-color="#4F83F9" stop-opacity="0"/>
<stop offset="0.692708" stop-color="#4F83F9"/>
</linearGradient>
<linearGradient id="paint4_linear_4_119" x1="1826.96" y1="817.474" x2="986.314" y2="509.62" gradientUnits="userSpaceOnUse">
<stop offset="0.51474" stop-color="#6793F5"/>
<stop offset="1" stop-color="#4278F0" stop-opacity="0"/>
</linearGradient>
<linearGradient id="paint5_linear_4_119" x1="966.486" y1="361.225" x2="966" y2="-122.463" gradientUnits="userSpaceOnUse">
<stop stop-color="#4F83F9"/>
<stop offset="1" stop-color="#4F83F9" stop-opacity="0"/>
</linearGradient>
<linearGradient id="paint6_linear_4_119" x1="293.5" y1="1229.55" x2="-375.757" y2="1724.89" gradientUnits="userSpaceOnUse">
<stop stop-color="#4F82F9" stop-opacity="0"/>
<stop offset="0.979167" stop-color="#4F82F9"/>
</linearGradient>
<linearGradient id="paint7_linear_4_119" x1="1014" y1="1397.55" x2="-168.108" y2="1543.61" gradientUnits="userSpaceOnUse">
<stop stop-color="#4F82F9" stop-opacity="0"/>
<stop offset="0.418859" stop-color="#4F82F9"/>
</linearGradient>
<linearGradient id="paint8_linear_4_119" x1="18.4101" y1="2502.51" x2="326.264" y2="1661.86" gradientUnits="userSpaceOnUse">
<stop stop-color="#4F82F9" stop-opacity="0.8"/>
<stop offset="1" stop-color="#4F82F9" stop-opacity="0.5"/>
</linearGradient>
<linearGradient id="paint9_linear_4_119" x1="631.947" y1="1642.03" x2="981.012" y2="1642.03" gradientUnits="userSpaceOnUse">
<stop stop-color="#4F82F9"/>
<stop offset="1" stop-color="#4F82F9" stop-opacity="0"/>
</linearGradient>
</defs>
</svg>
