<svg width="32" height="32" viewBox="0 0 32 32" fill="none" xmlns="http://www.w3.org/2000/svg">
<path d="M25.0752 31.4979H6.42267C2.87943 31.4979 0 28.6141 0 25.0752V6.42267C0 2.88383 2.88383 0 6.42267 0H25.0752C28.6185 0 31.4979 2.88383 31.4979 6.42267V25.0752C31.4979 28.6185 28.6185 31.4979 25.0752 31.4979ZM6.42267 1.75843C3.85096 1.75843 1.75843 3.85096 1.75843 6.42267V25.0752C1.75843 27.6469 3.85096 29.7395 6.42267 29.7395H25.0752C27.6469 29.7395 29.7395 27.6469 29.7395 25.0752V6.42267C29.7395 3.85096 27.6469 1.75843 25.0752 1.75843H6.42267Z" fill="#091F40"/>
<path d="M19.0617 9.32451H20.719V5.71973H18.2264C14.692 5.71973 13.0171 7.82105 13.0171 10.8148V13.6502H10.252V17.0748H13.0171V25.7834H17.167V17.0748H19.9321L20.719 13.6502H17.167V11.3115C17.167 10.3532 17.6901 9.32011 19.0661 9.32011L19.0617 9.32451Z" fill="#091F40"/>
</svg>
