<svg width="151" height="30" viewBox="0 0 151 30" fill="none" xmlns="http://www.w3.org/2000/svg">
<path d="M11.1411 25.3154C8.2875 25.3154 5.43391 24.2449 3.26034 22.104C-1.08678 17.8221 -1.08678 10.8577 3.26034 6.57582L9.06604 0.857222C9.49186 0.437796 10.1814 0.437796 10.6041 0.857222C11.0299 1.27665 11.0299 1.95587 10.6041 2.37217L4.79836 8.09076C1.29969 11.5369 1.29969 17.1397 4.79836 20.5859C8.29386 24.029 13.9852 24.029 17.4838 20.5859L22.4824 15.6623C22.8383 15.3118 22.8415 14.7452 22.4919 14.3884L22.4792 14.379C22.1328 14.0378 21.5259 14.0378 21.1795 14.379L16.1206 19.3621C13.3464 22.0946 8.83089 22.0946 6.05674 19.3621C4.71256 18.038 3.97215 16.279 3.97215 14.4072C3.97215 12.5354 4.71256 10.7763 6.05674 9.45233L10.9345 4.64771C14.7256 0.910433 18.8089 -0.513738 23.7821 0.162352C24.3763 0.243733 24.7926 0.785231 24.7132 1.37055C24.6305 1.959 24.0808 2.36904 23.4866 2.28765C19.1871 1.70234 15.7933 2.89801 12.4757 6.16578L7.59794 10.9704C5.67224 12.8672 5.67224 15.9534 7.59794 17.8502C9.52364 19.7471 12.6569 19.7471 14.5826 17.8502L19.6415 12.8672C20.2262 12.2913 21.0047 11.972 21.831 11.972C22.6572 11.972 23.4166 12.2819 23.9982 12.8422L24.0236 12.8672C25.2311 14.0566 25.2311 15.991 24.0236 17.1804L19.025 22.104C16.8515 24.2449 13.9979 25.3154 11.1443 25.3154H11.1411Z" fill="#40AE49"/>
<path d="M11.6148 29.2745C10.8649 29.2745 10.0959 29.2213 9.30146 29.1118C8.70722 29.0304 8.29094 28.4889 8.37038 27.9036C8.453 27.3182 9.00593 26.9082 9.59698 26.9865C13.8964 27.5686 17.2902 26.373 20.6078 23.1083L25.4856 18.3037C26.4198 17.3835 26.9315 16.1627 26.9315 14.8638C26.9315 13.5648 26.4167 12.3441 25.4856 11.4239C24.5513 10.5036 23.312 9.99969 21.9933 9.99969C20.6745 9.99969 19.4352 10.5068 18.501 11.4239L13.442 16.4069C12.2345 17.5963 10.2707 17.5963 9.06313 16.4069C8.47525 15.8278 8.1543 15.0641 8.1543 14.2472C8.1543 13.4302 8.47525 12.6665 9.06313 12.0906L14.0617 7.16699C18.4088 2.88509 25.4792 2.88509 29.8264 7.16699C34.1735 11.4489 34.1735 18.4133 29.8264 22.6952L24.0207 28.4138C23.5949 28.8332 22.9053 28.8332 22.4826 28.4138C22.0568 27.9943 22.0568 27.3151 22.4826 26.8988L28.2883 21.1802C31.787 17.734 31.787 12.1312 28.2883 8.68507C24.7897 5.24202 19.1016 5.24202 15.6029 8.68507L10.6043 13.6086C10.4295 13.7808 10.3342 14.0061 10.3342 14.2503C10.3342 14.4944 10.4295 14.7198 10.6043 14.892C10.9666 15.2488 11.5481 15.2456 11.9072 14.892L16.9661 9.90892C18.3103 8.58491 20.0962 7.8556 21.9965 7.8556C23.8967 7.8556 25.6826 8.58491 27.0268 9.90892C28.371 11.2329 29.1114 12.992 29.1114 14.8638C29.1114 16.7355 28.371 18.4946 27.0268 19.8186L22.149 24.6233C18.9617 27.7627 15.5679 29.2714 11.6148 29.2714V29.2745Z" fill="#40AE49"/>
<path d="M45.1877 18.3419V23.6129H42.2324V8.26318C42.2324 6.74511 43.3001 5.66211 44.8 5.66211H49.4586C53.186 5.66211 55.957 8.16928 55.957 11.9441C55.957 15.7189 53.2083 18.3419 49.4586 18.3419H45.1877ZM45.1877 15.5124H49.4586C51.5273 15.5124 52.9572 14.0381 52.9572 11.9441C52.9572 9.85011 51.4574 8.51358 49.4586 8.51358H45.89C45.4801 8.51358 45.1845 8.81407 45.1845 9.22723V15.5092L45.1877 15.5124Z" fill="#0A2041"/>
<path d="M63.9399 11.7622V14.5918H62.6212C60.7114 14.5918 59.418 15.9502 59.418 17.9753V23.6126H56.5771V17.9753C56.5771 13.5808 58.9636 11.7622 62.6212 11.7622H63.9399Z" fill="#0A2041"/>
<path d="M65.0649 7.52762C65.0649 6.51348 65.8816 5.66211 66.9048 5.66211C67.9281 5.66211 68.7225 6.51348 68.7225 7.52762C68.7225 8.54175 67.9058 9.39313 66.9048 9.39313C65.9039 9.39313 65.0649 8.54175 65.0649 7.52762ZM68.3158 11.7626V23.6129H65.4749V11.7626H68.3158Z" fill="#0A2041"/>
<path d="M76.5331 11.5308C79.7839 11.5308 82.1926 13.6029 82.1926 17.2149V23.6127H79.3517V17.2838C79.3517 15.3745 78.1473 14.3384 76.5331 14.3384C74.9188 14.3384 73.7144 15.3745 73.7144 17.2838V23.6127H70.8735V17.2149C70.8735 13.6029 73.26 11.5308 76.5331 11.5308Z" fill="#0A2041"/>
<path d="M90.5309 23.7507C87.7345 23.7507 86.1456 22.2326 86.1456 19.1715V14.3856H83.2603V11.7626H85.3067C85.8533 11.7626 86.1488 11.4622 86.1488 10.9113V7.62158H88.9897V11.7626H93.3082V14.3856H88.9897V18.896C88.9897 20.3233 89.5585 20.9681 91.0806 20.9681C91.6272 20.9681 92.3295 20.9462 93.3082 20.8053V23.566C92.3549 23.7038 91.3539 23.7507 90.5341 23.7507H90.5309Z" fill="#0A2041"/>
<path d="M95.6685 18.0444H98.8271C99.3959 20.3011 101.055 21.1055 103.26 21.1055C105.577 21.1055 107.372 20.2542 107.372 18.3448C107.372 16.9175 106.441 16.2727 104.827 16.1601L101.328 15.8377C98.2837 15.5622 96.1928 13.7656 96.1928 10.8452C96.1928 7.50861 98.9415 5.43652 102.898 5.43652C106.307 5.43652 109.329 7.07041 110.079 10.6136H106.899C106.241 8.79506 104.649 8.21913 102.831 8.21913C100.467 8.21913 99.1735 9.25518 99.1735 10.7513C99.1735 12.0847 100.174 12.8234 101.719 12.9361L105.173 13.2585C108.24 13.534 110.356 15.1459 110.356 18.1383C110.356 21.5437 107.582 23.8443 103.266 23.8443C99.3356 23.8443 96.4248 22.2324 95.6748 18.0444H95.6685Z" fill="#0A2041"/>
<path d="M117.96 23.8444C114.484 23.8444 111.938 21.2433 111.938 17.7001C111.938 14.1569 114.484 11.5308 117.96 11.5308C120.938 11.5308 123.254 13.4651 123.756 16.2728H120.801C120.391 15.1209 119.279 14.3384 117.938 14.3384C116.143 14.3384 114.824 15.7657 114.824 17.697C114.824 19.6282 116.143 21.0555 117.938 21.0555C119.257 21.0555 120.391 20.273 120.801 19.1211H123.756C123.232 21.9288 120.938 23.8381 117.96 23.8381V23.8444Z" fill="#0A2041"/>
<path d="M124.974 17.7001C124.974 14.1318 127.608 11.5308 131.199 11.5308C134.79 11.5308 137.29 14.0849 137.29 17.5154V23.6127H134.656V21.6784C133.77 23.1276 132.336 23.8412 130.792 23.8412C127.497 23.8412 124.974 21.2402 124.974 17.697V17.7001ZM131.132 14.3415C129.244 14.3415 127.859 15.7688 127.859 17.7001C127.859 19.6313 129.244 21.0586 131.132 21.0586C133.02 21.0586 134.405 19.6313 134.405 17.7001C134.405 15.7688 133.042 14.3415 131.132 14.3415Z" fill="#0A2041"/>
<path d="M145.341 11.5308C148.591 11.5308 151 13.6029 151 17.2149V23.6127H148.159V17.2838C148.159 15.3745 146.955 14.3384 145.341 14.3384C143.726 14.3384 142.522 15.3745 142.522 17.2838V23.6127H139.681V17.2149C139.681 13.6029 142.068 11.5308 145.341 11.5308Z" fill="#0A2041"/>
</svg>
