<svg width="212" height="41" viewBox="0 0 212 41" fill="none" xmlns="http://www.w3.org/2000/svg">
<path d="M15.6034 35.4549C11.6069 35.4549 7.61033 33.9557 4.5662 30.9572C-1.52207 24.9603 -1.52207 15.2065 4.5662 9.2096L12.6972 1.20056C13.2936 0.613145 14.2594 0.613145 14.8513 1.20056C15.4476 1.78798 15.4476 2.73925 14.8513 3.32228L6.72023 11.3313C1.82025 16.1578 1.82025 24.0046 6.72023 28.8311C11.6158 33.6532 19.5866 33.6532 24.4866 28.8311L31.4872 21.9355C31.9856 21.4445 31.9901 20.6511 31.5005 20.1513L31.4827 20.1382C30.9976 19.6604 30.1476 19.6604 29.6625 20.1382L22.5773 27.1171C18.692 30.944 12.3679 30.944 8.48262 27.1171C6.60007 25.2628 5.56311 22.7991 5.56311 20.1777C5.56311 17.5562 6.60007 15.0925 8.48262 13.2382L15.3141 6.50924C20.6235 1.27509 26.3424 -0.719504 33.3074 0.227378C34.1397 0.341355 34.7227 1.09974 34.6114 1.91949C34.4957 2.74363 33.7258 3.3179 32.8935 3.20392C26.872 2.38416 22.1189 4.05874 17.4726 8.63534L10.6411 15.3643C7.94411 18.0209 7.94411 22.3432 10.6411 24.9997C13.3381 27.6563 17.7263 27.6563 20.4233 24.9997L27.5084 18.0209C28.3273 17.2143 29.4177 16.7671 30.5748 16.7671C31.732 16.7671 32.7956 17.2011 33.6101 17.9858L33.6457 18.0209C35.3368 19.6867 35.3368 22.3958 33.6457 24.0616L26.645 30.9572C23.6009 33.9557 19.6044 35.4549 15.6078 35.4549H15.6034Z" fill="#5DBA88"/>
<path d="M16.2665 40.9999C15.2162 40.9999 14.1392 40.9254 13.0265 40.7719C12.1943 40.658 11.6113 39.8996 11.7226 39.0798C11.8383 38.2601 12.6127 37.6858 13.4404 37.7954C19.4619 38.6108 24.2151 36.9362 28.8614 32.364L35.6929 25.635C37.0013 24.3462 37.7178 22.6365 37.7178 20.8173C37.7178 18.998 36.9968 17.2884 35.6929 15.9996C34.3844 14.7108 32.6487 14.005 30.8018 14.005C28.9548 14.005 27.2191 14.7151 25.9107 15.9996L18.8255 22.9784C17.1343 24.6443 14.3839 24.6443 12.6928 22.9784C11.8694 22.1675 11.4199 21.0978 11.4199 19.9537C11.4199 18.8095 11.8694 17.7399 12.6928 16.9333L19.6934 10.0377C25.7816 4.04081 35.684 4.04081 41.7722 10.0377C47.8605 16.0346 47.8605 25.7884 41.7722 31.7853L33.6412 39.7944C33.0448 40.3818 32.0791 40.3818 31.4872 39.7944C30.8908 39.2069 30.8908 38.2557 31.4872 37.6726L39.6182 29.6636C44.5182 24.8371 44.5182 16.9903 39.6182 12.1638C34.7182 7.34174 26.7518 7.34174 21.8519 12.1638L14.8512 19.0594C14.6065 19.3005 14.473 19.6161 14.473 19.9581C14.473 20.3 14.6065 20.6156 14.8512 20.8567C15.3586 21.3565 16.173 21.3521 16.6759 20.8567L23.7611 13.8779C25.6437 12.0235 28.1448 11.0021 30.8062 11.0021C33.4676 11.0021 35.9688 12.0235 37.8513 13.8779C39.7339 15.7322 40.7709 18.1958 40.7709 20.8173C40.7709 23.4387 39.7339 25.9024 37.8513 27.7567L31.0199 34.4857C26.556 38.8825 21.8029 40.9955 16.2665 40.9955V40.9999Z" fill="#5DBA88"/>
<path d="M63.2864 25.6876V33.0698H59.1474V11.5721C59.1474 9.44596 60.6428 7.9292 62.7434 7.9292H69.2678C74.4882 7.9292 78.369 11.4406 78.369 16.7273C78.369 22.0141 74.5194 25.6876 69.2678 25.6876H63.2864V25.6876ZM63.2864 21.7247H69.2678C72.1651 21.7247 74.1678 19.66 74.1678 16.7273C74.1678 13.7946 72.0672 11.9228 69.2678 11.9228H64.2699C63.6958 11.9228 63.2819 12.3436 63.2819 12.9222V21.7204L63.2864 21.7247Z" fill="#091F40"/>
<path d="M89.55 16.4731V20.436H87.703C85.0283 20.436 83.2169 22.3386 83.2169 25.1748V33.0699H79.2382V25.1748C79.2382 19.0201 82.5805 16.4731 87.703 16.4731H89.55V16.4731Z" fill="#091F40"/>
<path d="M91.124 10.5419C91.124 9.12157 92.2677 7.9292 93.7008 7.9292C95.1338 7.9292 96.2465 9.12157 96.2465 10.5419C96.2465 11.9622 95.1027 13.1546 93.7008 13.1546C92.2989 13.1546 91.124 11.9622 91.124 10.5419ZM95.6768 16.4731V33.0698H91.6981V16.4731H95.6768Z" fill="#091F40"/>
<path d="M107.186 16.1489C111.739 16.1489 115.112 19.0509 115.112 24.1097V33.0701H111.134V24.2062C111.134 21.5321 109.447 20.0811 107.186 20.0811C104.925 20.0811 103.238 21.5321 103.238 24.2062V33.0701H99.2597V24.1097C99.2597 19.0509 102.602 16.1489 107.186 16.1489V16.1489Z" fill="#091F40"/>
<path d="M126.79 33.2631C122.874 33.2631 120.649 31.137 120.649 26.8497V20.147H116.608V16.4735H119.474C120.239 16.4735 120.653 16.0526 120.653 15.2811V10.6738H124.632V16.4735H130.68V20.147H124.632V26.464C124.632 28.4629 125.428 29.366 127.56 29.366C128.326 29.366 129.309 29.3353 130.68 29.138V33.0045C129.345 33.1973 127.943 33.2631 126.795 33.2631H126.79Z" fill="#091F40"/>
<path d="M133.986 25.2714H138.41C139.207 28.432 141.53 29.5586 144.618 29.5586C147.863 29.5586 150.377 28.3663 150.377 25.6922C150.377 23.6932 149.073 22.7902 146.813 22.6324L141.913 22.1808C137.649 21.7951 134.721 19.2788 134.721 15.1888C134.721 10.5158 138.57 7.61377 144.111 7.61377C148.886 7.61377 153.119 9.90207 154.169 14.8644H149.714C148.793 12.3175 146.563 11.5109 144.018 11.5109C140.707 11.5109 138.895 12.9619 138.895 15.0573C138.895 16.9248 140.297 17.9593 142.46 18.1171L147.298 18.5687C151.592 18.9544 154.556 21.212 154.556 25.4029C154.556 30.1723 150.671 33.3944 144.627 33.3944C139.122 33.3944 135.045 31.1368 133.995 25.2714H133.986Z" fill="#091F40"/>
<path d="M165.208 33.3944C160.339 33.3944 156.774 29.7516 156.774 24.7892C156.774 19.8269 160.339 16.1489 165.208 16.1489C169.378 16.1489 172.623 18.8581 173.326 22.7903H169.187C168.613 21.177 167.055 20.0811 165.177 20.0811C162.662 20.0811 160.815 22.0801 160.815 24.7848C160.815 27.4896 162.662 29.4886 165.177 29.4886C167.024 29.4886 168.613 28.3926 169.187 26.7794H173.326C172.591 30.7116 169.378 33.3857 165.208 33.3857V33.3944Z" fill="#091F40"/>
<path d="M175.029 24.7892C175.029 19.7918 178.719 16.1489 183.748 16.1489C188.777 16.1489 192.279 19.726 192.279 24.5306V33.0701H188.59V30.3609C187.348 32.3906 185.341 33.3901 183.178 33.3901C178.563 33.3901 175.029 29.7472 175.029 24.7848V24.7892ZM183.654 20.0855C181.011 20.0855 179.07 22.0845 179.07 24.7892C179.07 27.494 181.011 29.4929 183.654 29.4929C186.298 29.4929 188.238 27.494 188.238 24.7892C188.238 22.0845 186.329 20.0855 183.654 20.0855Z" fill="#091F40"/>
<path d="M203.551 16.1489C208.104 16.1489 211.477 19.0509 211.477 24.1097V33.0701H207.499V24.2062C207.499 21.5321 205.812 20.0811 203.551 20.0811C201.29 20.0811 199.604 21.5321 199.604 24.2062V33.0701H195.625V24.1097C195.625 19.0509 198.967 16.1489 203.551 16.1489Z" fill="#091F40"/>
</svg>
